<svg xmlns="http://www.w3.org/2000/svg" viewBox="0 0 900 620"><rect width="900" height="620" fill="#f5f6f9"/><ellipse cx="450" cy="485" rx="300" ry="30" fill="#dfe2e8"/><g transform="translate(150 195)"><rect width="600" height="170" rx="22" fill="#d7dbe3"/><rect x="28" y="32" width="544" height="105" rx="12" fill="#f8fafc" stroke="#b8bec9" stroke-width="5"/><g fill="#374151"><rect x="55" y="65" width="31" height="48" rx="4"/><rect x="104" y="65" width="31" height="48" rx="4"/><rect x="153" y="65" width="31" height="48" rx="4"/><rect x="202" y="65" width="31" height="48" rx="4"/><rect x="251" y="65" width="31" height="48" rx="4"/><rect x="300" y="65" width="31" height="48" rx="4"/><rect x="349" y="65" width="31" height="48" rx="4"/><rect x="398" y="65" width="31" height="48" rx="4"/><rect x="447" y="65" width="31" height="48" rx="4"/><rect x="496" y="65" width="31" height="48" rx="4"/></g><circle cx="62" cy="140" r="5" fill="#8b5cf6"/><text x="300" y="22" text-anchor="middle" fill="#6b7280" font-family="Arial" font-size="15">NETWORK SWITCH</text></g></svg>